<?xml version="1.0" standalone="no"?>
<!DOCTYPE svg PUBLIC "-//W3C//DTD SVG 20010904//EN"
 "http://www.w3.org/TR/2001/REC-SVG-20010904/DTD/svg10.dtd">
<svg version="1.0" xmlns="http://www.w3.org/2000/svg"
 width="719.000000pt" height="347.000000pt" viewBox="0 0 719.000000 347.000000"
 preserveAspectRatio="xMidYMid meet">
<metadata>
Created by potrace 1.16, written by Peter Selinger 2001-2019
</metadata>
<g transform="translate(0.000000,347.000000) scale(0.100000,-0.100000)"
fill="#000000" stroke="none">
<path d="M0 1735 l0 -1735 3595 0 3595 0 0 1735 0 1735 -3595 0 -3595 0 0
-1735z m2945 -317 c5 4 5 1 1 -6 -6 -10 -11 -10 -22 -1 -8 6 -14 14 -14 16 0
3 6 0 13 -6 8 -6 18 -7 22 -3z m155 6 c0 -8 -19 -13 -24 -6 -3 5 1 9 9 9 8 0
15 -2 15 -3z m20 -19 c-11 -12 -17 -25 -13 -30 5 -4 2 -5 -5 -1 -11 7 -10 11
2 25 9 10 14 20 11 23 -3 2 2 5 10 5 12 0 11 -5 -5 -22z m-202 -15 c1 -2 6 -3
11 -4 22 -3 19 -13 -4 -12 -13 1 -30 7 -36 13 -9 9 -7 11 7 8 11 -2 20 -4 22
-5z m136 -1 c3 -3 -5 -5 -19 -5 -13 0 -22 3 -19 7 4 8 30 6 38 -2z m1376 -415
c0 -8 -19 -13 -24 -6 -3 5 1 9 9 9 8 0 15 -2 15 -3z m40 -20 c0 -8 -19 -13
-24 -6 -3 5 1 9 9 9 8 0 15 -2 15 -3z m-1467 -89 c14 3 15 0 8 -9 -6 -7 -7
-17 -3 -21 4 -5 0 -4 -8 1 -21 12 -32 12 -50 0 -10 -7 -9 -4 3 10 9 11 14 25
10 29 -5 5 -1 4 7 -2 8 -6 23 -9 33 -8z m1489 -27 c-9 -9 -9 -15 1 -27 11 -14
10 -14 -6 -2 -13 10 -15 17 -6 27 6 8 14 14 17 14 3 0 1 -5 -6 -12z m-68 -16
c3 -5 -1 -9 -9 -9 -8 0 -12 4 -9 9 3 4 7 8 9 8 2 0 6 -4 9 -8z m-1272 -17 c2
3 5 -2 5 -10 0 -13 -2 -13 -17 0 -13 12 -19 12 -30 2 -12 -10 -12 -9 -1 6 10
12 17 14 26 7 6 -5 14 -8 17 -5z m1312 -3 c3 -5 -1 -9 -9 -9 -8 0 -12 4 -9 9
3 4 7 8 9 8 2 0 6 -4 9 -8z m-1387 -20 c-10 -10 -14 -22 -10 -26 5 -4 1 -6 -7
-4 -8 2 -14 -3 -12 -10 1 -8 -2 -11 -9 -7 -7 5 -1 17 17 36 30 32 48 41 21 11z
m1505 -7 c2 3 5 -2 5 -10 0 -11 -4 -12 -14 -4 -7 6 -13 8 -13 5 0 -4 -5 -4
-10 -1 -6 4 -8 11 -4 16 4 6 10 6 18 0 7 -6 15 -9 18 -6z m-1568 -3 c3 -5 -1
-9 -9 -9 -8 0 -12 4 -9 9 3 4 7 8 9 8 2 0 6 -4 9 -8z m192 -14 c3 -4 -1 -5
-10 -4 -8 1 -18 5 -22 8 -3 4 1 5 10 4 8 -1 18 -5 22 -8z m-96 -4 c0 -8 -19
-13 -24 -6 -3 5 1 9 9 9 8 0 15 -2 15 -3z m-1065 -33 c-2 -9 -4 -18 -5 -21 -1
-3 -2 -8 -2 -11 1 -3 -5 -6 -12 -6 -7 0 -13 6 -13 13 0 7 3 12 6 11 3 -1 6 3
6 8 0 6 -4 9 -8 7 -5 -1 -6 1 -3 6 9 15 34 9 31 -7z m22 -56 c0 -8 -4 -12 -9
-9 -5 3 -6 10 -3 15 9 13 12 11 12 -6z m-130 -30 c0 -8 -3 -13 -5 -10 -3 3
-12 -1 -21 -7 -10 -8 -9 -4 3 10 23 26 23 26 23 7z m90 -8 c0 -8 -6 -14 -14
-14 -9 0 -10 4 -2 14 6 7 12 13 14 13 1 0 2 -6 2 -13z m-37 -12 c0 -1 -15 -14
-32 -31 -18 -16 -30 -25 -26 -20 5 5 3 15 -2 21 -8 9 -4 12 12 11 13 0 22 4
21 10 -1 6 5 11 13 11 8 0 14 -1 14 -2z m1984 -3 c3 -5 -1 -9 -9 -9 -8 0 -12
4 -9 9 3 4 7 8 9 8 2 0 6 -4 9 -8z m-2064 -16 c0 -2 -6 -9 -14 -15 -11 -9 -16
-9 -22 0 -4 7 -3 9 4 5 6 -3 13 -2 17 4 6 10 15 14 15 6z m771 -13 c12 -16 12
-17 -2 -6 -9 7 -20 9 -24 5 -5 -4 -5 -1 -1 6 9 16 11 15 27 -5z m-762 -59 c-6
-7 -15 -11 -21 -8 -5 3 -4 12 3 20 6 7 15 11 21 8 5 -3 4 -12 -3 -20z m2157
-56 c3 -4 -1 -5 -10 -4 -8 1 -18 5 -22 8 -3 4 1 5 10 4 8 -1 18 -5 22 -8z
m-2236 -4 c0 -8 -19 -13 -24 -6 -3 5 1 9 9 9 8 0 15 -2 15 -3z m-45 -31 c-2
-10 -4 -19 -4 -21 -1 -2 -6 0 -11 3 -8 5 -7 11 1 21 15 18 18 18 14 -3z m65
13 c0 -2 -8 -10 -17 -17 -16 -13 -17 -12 -4 4 13 16 21 21 21 13z m727 -40 c0
-15 -21 -16 -34 -1 -4 4 -3 5 4 1 6 -3 14 -2 18 4 8 14 12 13 12 -4z m-777
-10 c0 -2 -6 -9 -14 -15 -11 -9 -16 -9 -22 0 -4 7 -3 9 4 5 6 -3 13 -2 17 4 6
10 15 14 15 6z m144 -4 c3 -5 -1 -9 -9 -9 -8 0 -12 4 -9 9 3 4 7 8 9 8 2 0 6
-4 9 -8z m86 -8 c0 -8 -19 -13 -24 -6 -3 5 1 9 9 9 8 0 15 -2 15 -3z m-220
-17 c0 -2 -10 -12 -22 -23 l-23 -19 19 23 c18 21 26 27 26 19z m2317 -24 c-4
-3 -1 -13 6 -22 11 -14 10 -14 -5 -2 -16 12 -16 31 -1 31 4 0 3 -3 0 -7z m-31
-119 c1 -9 -1 -13 -4 -9 -4 4 -7 10 -7 13 0 4 -4 14 -9 22 -7 12 -6 13 4 3 8
-7 15 -20 16 -29z m-41 -4 c10 -11 16 -20 13 -20 -3 0 -13 9 -23 20 -10 11
-16 20 -13 20 3 0 13 -9 23 -20z m61 -35 c-1 -8 -5 -17 -8 -21 -5 -4 -4 16 1
34 3 9 9 -1 7 -13z m22 -97 c-2 -7 2 -12 8 -11 5 1 10 -9 10 -21 0 -12 -5 -23
-12 -23 -7 0 -11 8 -9 18 2 10 -1 21 -6 24 -5 4 -7 11 -4 16 9 13 15 11 13 -3z
m1106 -36 c3 -5 -1 -9 -9 -9 -8 0 -12 4 -9 9 3 4 7 8 9 8 2 0 6 -4 9 -8z m-54
-8 c0 -8 -19 -13 -24 -6 -3 5 1 9 9 9 8 0 15 -2 15 -3z"/>
</g>
</svg>
